<?xml version="1.0" encoding="UTF-8" standalone="no"?><!DOCTYPE svg PUBLIC "-//W3C//DTD SVG 1.1//EN" "http://www.w3.org/Graphics/SVG/1.1/DTD/svg11.dtd"><svg width="100%" height="100%" viewBox="0 0 251 331" version="1.1" xmlns="http://www.w3.org/2000/svg" xmlns:xlink="http://www.w3.org/1999/xlink" xml:space="preserve" xmlns:serif="http://www.serif.com/" style="fill-rule:evenodd;clip-rule:evenodd;stroke-linejoin:round;stroke-miterlimit:2;"><g id="Who-Noals" serif:id="Who Noals"><path d="M225.053,305.541l-200.003,0l-0,-280.491l200.003,-0l0,280.491Zm-6.111,-274.38l-187.781,-0l-0,268.269l187.781,0l0,-268.269Z" style="fill:#fff7d3;"/><g transform="matrix(0.181796,0,0,0.181796,-1.74993,136.758)"><g transform="matrix(188.59,0,0,188.59,233.53,656.153)"><path d="M0.488,-0.412l-0.023,0.113l0.126,0l-0,0.101l-0.145,-0l-0.038,0.198l-0.107,0l0.038,-0.198l-0.095,-0l-0.037,0.198l-0.105,0l0.036,-0.198l-0.116,-0l-0,-0.101l0.135,0l0.023,-0.113l-0.123,-0l0,-0.102l0.141,-0l0.038,-0.199l0.107,0l-0.038,0.199l0.097,-0l0.038,-0.199l0.105,0l-0.038,0.199l0.117,-0l0,0.102l-0.136,-0Zm-0.225,0.113l0.096,0l0.023,-0.113l-0.096,-0l-0.023,0.113Z" style="fill:#fff7d3;fill-rule:nonzero;"/></g><g transform="matrix(188.59,0,0,188.59,348.381,656.153)"><path d="M0.967,-0.714l-0.182,0.714l-0.172,-0l-0.097,-0.375c-0.002,-0.007 -0.004,-0.018 -0.008,-0.033c-0.003,-0.014 -0.006,-0.03 -0.01,-0.048c-0.004,-0.017 -0.007,-0.034 -0.009,-0.049c-0.003,-0.016 -0.005,-0.028 -0.006,-0.037c-0.001,0.009 -0.003,0.021 -0.006,0.037c-0.002,0.015 -0.006,0.031 -0.009,0.048c-0.003,0.018 -0.007,0.034 -0.01,0.049c-0.003,0.015 -0.006,0.026 -0.008,0.034l-0.096,0.374l-0.172,-0l-0.182,-0.714l0.149,0l0.091,0.39c0.003,0.011 0.006,0.025 0.009,0.042c0.004,0.016 0.007,0.033 0.011,0.051c0.003,0.018 0.006,0.035 0.009,0.051c0.003,0.017 0.005,0.031 0.006,0.043c0.002,-0.013 0.004,-0.027 0.006,-0.043c0.003,-0.017 0.006,-0.034 0.009,-0.051c0.003,-0.017 0.006,-0.033 0.009,-0.047c0.004,-0.015 0.007,-0.027 0.009,-0.036l0.104,-0.4l0.143,0l0.104,0.4c0.002,0.009 0.005,0.021 0.008,0.035c0.003,0.015 0.007,0.031 0.01,0.049c0.003,0.017 0.006,0.034 0.009,0.05c0.003,0.017 0.005,0.031 0.006,0.043c0.002,-0.016 0.005,-0.036 0.009,-0.06c0.004,-0.023 0.009,-0.046 0.014,-0.069c0.004,-0.023 0.008,-0.043 0.012,-0.058l0.091,-0.39l0.149,0Z" style="fill:#fff7d3;fill-rule:nonzero;"/></g><g transform="matrix(188.59,0,0,188.59,523.731,656.153)"><path d="M0.675,-0l-0.151,-0l-0,-0.308l-0.283,-0l0,0.308l-0.151,-0l-0,-0.714l0.151,0l0,0.28l0.283,-0l-0,-0.28l0.151,0l-0,0.714Z" style="fill:#fff7d3;fill-rule:nonzero;"/></g><g transform="matrix(188.59,0,0,188.59,661.05,656.153)"><path d="M0.738,-0.358c-0,0.055 -0.007,0.105 -0.021,0.15c-0.013,0.045 -0.034,0.084 -0.062,0.117c-0.028,0.032 -0.063,0.057 -0.106,0.075c-0.042,0.017 -0.093,0.026 -0.151,0.026c-0.058,-0 -0.109,-0.009 -0.151,-0.026c-0.043,-0.018 -0.078,-0.043 -0.106,-0.075c-0.028,-0.033 -0.049,-0.072 -0.062,-0.117c-0.014,-0.045 -0.021,-0.096 -0.021,-0.151c0,-0.074 0.012,-0.138 0.036,-0.193c0.025,-0.055 0.062,-0.097 0.113,-0.128c0.05,-0.03 0.114,-0.045 0.192,-0.045c0.077,-0 0.141,0.015 0.191,0.045c0.05,0.031 0.087,0.073 0.111,0.128c0.025,0.055 0.037,0.12 0.037,0.194Zm-0.521,0c-0,0.05 0.006,0.093 0.019,0.129c0.012,0.036 0.032,0.063 0.058,0.083c0.027,0.019 0.062,0.029 0.104,0.029c0.043,-0 0.078,-0.01 0.104,-0.029c0.027,-0.02 0.047,-0.047 0.059,-0.083c0.012,-0.036 0.018,-0.079 0.018,-0.129c0,-0.075 -0.014,-0.134 -0.042,-0.177c-0.028,-0.043 -0.074,-0.064 -0.138,-0.064c-0.043,-0 -0.077,0.01 -0.104,0.029c-0.027,0.019 -0.047,0.047 -0.059,0.083c-0.013,0.036 -0.019,0.079 -0.019,0.129Z" style="fill:#fff7d3;fill-rule:nonzero;"/></g><g transform="matrix(188.59,0,0,188.59,233.53,837.209)"><path d="M0.723,-0l-0.192,-0l-0.311,-0.54l-0.004,-0c0.001,0.022 0.002,0.045 0.003,0.068c0.001,0.023 0.005,0.113 0.006,0.136l0,0.336l-0.135,-0l-0,-0.714l0.191,0l0.31,0.535l0.003,-0c-0,-0.022 -0.001,-0.044 -0.002,-0.066c-0.001,-0.022 -0.002,-0.044 -0.003,-0.066c-0.001,-0.021 -0.001,-0.043 -0.002,-0.065l-0,-0.338l0.136,0l0,0.714Z" style="fill:#fff7d3;fill-rule:nonzero;"/></g><g transform="matrix(188.59,0,0,188.59,379.874,837.209)"><path d="M0.738,-0.358c-0,0.055 -0.007,0.105 -0.021,0.15c-0.013,0.045 -0.034,0.084 -0.062,0.117c-0.028,0.032 -0.063,0.057 -0.106,0.075c-0.042,0.017 -0.093,0.026 -0.151,0.026c-0.058,-0 -0.109,-0.009 -0.151,-0.026c-0.043,-0.018 -0.078,-0.043 -0.106,-0.075c-0.028,-0.033 -0.049,-0.072 -0.062,-0.117c-0.014,-0.045 -0.021,-0.096 -0.021,-0.151c0,-0.074 0.012,-0.138 0.036,-0.193c0.025,-0.055 0.062,-0.097 0.113,-0.128c0.05,-0.03 0.114,-0.045 0.192,-0.045c0.077,-0 0.141,0.015 0.191,0.045c0.05,0.031 0.087,0.073 0.111,0.128c0.025,0.055 0.037,0.12 0.037,0.194Zm-0.521,0c-0,0.05 0.006,0.093 0.019,0.129c0.012,0.036 0.032,0.063 0.058,0.083c0.027,0.019 0.062,0.029 0.104,0.029c0.043,-0 0.078,-0.01 0.104,-0.029c0.027,-0.02 0.047,-0.047 0.059,-0.083c0.012,-0.036 0.018,-0.079 0.018,-0.129c0,-0.075 -0.014,-0.134 -0.042,-0.177c-0.028,-0.043 -0.074,-0.064 -0.138,-0.064c-0.043,-0 -0.077,0.01 -0.104,0.029c-0.027,0.019 -0.047,0.047 -0.059,0.083c-0.013,0.036 -0.019,0.079 -0.019,0.129Z" style="fill:#fff7d3;fill-rule:nonzero;"/></g><g transform="matrix(188.59,0,0,188.59,522.995,837.209)"><path d="M0.527,-0l-0.052,-0.17l-0.26,0l-0.052,0.17l-0.163,-0l0.252,-0.717l0.185,0l0.253,0.717l-0.163,-0Zm-0.088,-0.297l-0.052,-0.166c-0.003,-0.011 -0.023,-0.078 -0.029,-0.096c-0.005,-0.018 -0.01,-0.034 -0.013,-0.047c-0.003,0.013 -0.008,0.03 -0.013,0.05c-0.006,0.019 -0.011,0.038 -0.017,0.056c-0.005,0.017 -0.009,0.03 -0.011,0.037l-0.051,0.166l0.186,0Z" style="fill:#fff7d3;fill-rule:nonzero;"/></g><g transform="matrix(188.59,0,0,188.59,646.133,837.209)"><path d="M0.09,-0l-0,-0.714l0.151,0l0,0.589l0.29,0l-0,0.125l-0.441,-0Z" style="fill:#fff7d3;fill-rule:nonzero;"/></g><g transform="matrix(188.59,0,0,188.59,745.697,837.209)"><path d="M0.511,-0.198c0,0.042 -0.01,0.079 -0.031,0.11c-0.02,0.031 -0.05,0.055 -0.089,0.072c-0.039,0.017 -0.087,0.026 -0.143,0.026c-0.025,-0 -0.049,-0.002 -0.072,-0.005c-0.024,-0.003 -0.047,-0.008 -0.068,-0.015c-0.022,-0.006 -0.043,-0.014 -0.062,-0.023l-0,-0.141c0.034,0.015 0.069,0.029 0.105,0.041c0.037,0.012 0.073,0.018 0.109,0.018c0.025,-0 0.044,-0.003 0.06,-0.01c0.015,-0.007 0.026,-0.015 0.033,-0.027c0.006,-0.011 0.01,-0.024 0.01,-0.039c-0,-0.018 -0.006,-0.033 -0.018,-0.046c-0.012,-0.013 -0.029,-0.024 -0.05,-0.035c-0.021,-0.012 -0.045,-0.023 -0.071,-0.036c-0.016,-0.008 -0.035,-0.017 -0.054,-0.029c-0.02,-0.011 -0.038,-0.025 -0.056,-0.041c-0.017,-0.016 -0.032,-0.036 -0.043,-0.059c-0.011,-0.024 -0.017,-0.051 -0.017,-0.084c0,-0.043 0.01,-0.079 0.029,-0.109c0.02,-0.031 0.048,-0.054 0.084,-0.07c0.037,-0.016 0.079,-0.024 0.129,-0.024c0.037,-0 0.072,0.004 0.106,0.013c0.034,0.008 0.069,0.021 0.106,0.037l-0.049,0.118c-0.033,-0.013 -0.062,-0.024 -0.088,-0.031c-0.026,-0.007 -0.053,-0.011 -0.08,-0.011c-0.019,-0 -0.035,0.003 -0.048,0.009c-0.014,0.006 -0.024,0.014 -0.031,0.025c-0.006,0.011 -0.01,0.024 -0.01,0.038c0,0.017 0.005,0.031 0.015,0.043c0.01,0.011 0.025,0.023 0.045,0.033c0.02,0.011 0.045,0.024 0.075,0.038c0.036,0.017 0.068,0.035 0.093,0.054c0.026,0.019 0.046,0.041 0.06,0.066c0.014,0.025 0.021,0.056 0.021,0.094Z" style="fill:#fff7d3;fill-rule:nonzero;"/></g><g transform="matrix(188.59,0,0,188.59,842.591,837.209)"><path d="M0.135,-0.237l-0,-0.036c-0,-0.022 0.003,-0.042 0.009,-0.059c0.006,-0.017 0.016,-0.033 0.03,-0.049c0.013,-0.015 0.032,-0.031 0.054,-0.047c0.02,-0.015 0.036,-0.027 0.049,-0.039c0.012,-0.011 0.021,-0.023 0.026,-0.034c0.006,-0.011 0.009,-0.024 0.009,-0.038c0,-0.021 -0.008,-0.037 -0.023,-0.048c-0.016,-0.011 -0.038,-0.017 -0.066,-0.017c-0.028,-0 -0.056,0.004 -0.083,0.013c-0.028,0.009 -0.056,0.021 -0.084,0.035l-0.053,-0.107c0.032,-0.018 0.068,-0.033 0.106,-0.044c0.038,-0.012 0.08,-0.017 0.125,-0.017c0.07,-0 0.124,0.017 0.162,0.05c0.038,0.033 0.057,0.076 0.057,0.127c0,0.027 -0.004,0.051 -0.013,0.071c-0.008,0.02 -0.021,0.039 -0.039,0.056c-0.017,0.017 -0.039,0.035 -0.065,0.054c-0.02,0.014 -0.035,0.026 -0.045,0.036c-0.01,0.01 -0.017,0.019 -0.021,0.029c-0.004,0.01 -0.006,0.021 -0.006,0.035l0,0.029l-0.129,0Zm-0.016,0.167c0,-0.03 0.009,-0.052 0.025,-0.064c0.017,-0.013 0.037,-0.019 0.061,-0.019c0.023,0 0.043,0.006 0.06,0.019c0.017,0.012 0.025,0.034 0.025,0.064c0,0.029 -0.008,0.051 -0.025,0.064c-0.017,0.013 -0.037,0.019 -0.06,0.019c-0.024,0 -0.044,-0.006 -0.061,-0.019c-0.016,-0.013 -0.025,-0.035 -0.025,-0.064Z" style="fill:#fff7d3;fill-rule:nonzero;"/></g></g></g></svg>